<svg xmlns="http://www.w3.org/2000/svg" xmlns:xlink="http://www.w3.org/1999/xlink" width="48" height="48" viewBox="0 0 24 24" fill="none"><path d="M8.48639 4.53107C8.69903 3.97288 8.99141 3.459 9.42556 3.04257C11.1621 1.3503 14.0328 1.77558 15.2112 3.902C16.0972 5.51454 17.0364 7.09163 17.949 8.68645C19.4729 11.3356 21.0146 13.9848 22.5208 16.6428C23.7878 18.8667 22.4144 21.6753 19.8982 22.0563C18.3565 22.2867 16.9123 21.5779 16.1149 20.1957C14.7771 17.8655 13.4303 15.5353 12.0924 13.214C12.0659 13.1608 12.0304 13.1165 11.995 13.0722C11.8532 12.957 11.7912 12.7887 11.7026 12.638C11.109 11.5926 10.4976 10.5559 9.904 9.5193C9.52302 8.84593 9.12432 8.18142 8.74333 7.50806C8.39779 6.90557 8.23831 6.24992 8.25603 5.55884C8.28261 5.20443 8.32691 4.85003 8.48639 4.53107Z" fill="#3C8BD9"></path><path d="M8.48657 4.53101C8.40683 4.84997 8.33595 5.16893 8.31823 5.50562C8.29165 6.24986 8.47771 6.94095 8.84983 7.58774C9.82444 9.26229 10.799 10.9457 11.7648 12.6291C11.8534 12.7797 11.9243 12.9304 12.0129 13.0721C11.4813 13.9936 10.9497 14.9062 10.4092 15.8276C9.66496 17.1123 8.92071 18.4059 8.1676 19.6906C8.13216 19.6906 8.1233 19.6729 8.11444 19.6463C8.10558 19.5754 8.13216 19.5134 8.14988 19.4425C8.51315 18.1135 8.2119 16.9351 7.29932 15.9251C6.74113 15.3137 6.03232 14.9682 5.2172 14.853C4.15399 14.7024 3.21482 14.977 2.37311 15.6416C2.22249 15.7567 2.12503 15.9251 1.94782 16.0137C1.91238 16.0137 1.89466 15.996 1.8858 15.9694C2.31109 15.234 2.72751 14.4986 3.1528 13.7632C4.90709 10.7153 6.66139 7.66748 8.42455 4.62847C8.44227 4.59303 8.46885 4.56645 8.48657 4.53101Z" fill="#FABC04"></path><path d="M1.92125 15.996C2.08959 15.8454 2.24908 15.6859 2.42628 15.5441C4.57928 13.843 7.81321 15.0746 8.28279 17.768C8.39798 18.4148 8.33596 19.035 8.14103 19.6552C8.13217 19.7084 8.12331 19.7527 8.10559 19.8058C8.02585 19.9476 7.95497 20.0982 7.86637 20.24C7.07782 21.5424 5.91715 22.1892 4.39322 22.0917C2.64778 21.9677 1.27447 20.6564 1.03524 18.9198C0.920063 18.0781 1.0884 17.2896 1.52255 16.563C1.61115 16.4036 1.71747 16.2618 1.81493 16.1023C1.85923 16.0669 1.84151 15.996 1.92125 15.996Z" fill="#34A852"></path><path d="M1.92135 15.9961C1.88591 16.0315 1.88591 16.0935 1.82389 16.1024C1.81503 16.0404 1.85047 16.0049 1.88591 15.9606L1.92135 15.9961Z" fill="#FABC04"></path><path d="M8.10562 19.806C8.07018 19.7439 8.10562 19.6996 8.14106 19.6553C8.14992 19.6642 8.16764 19.6819 8.1765 19.6908L8.10562 19.806Z" fill="#E1C025"></path></svg>