<svg xmlns="http://www.w3.org/2000/svg" xmlns:xlink="http://www.w3.org/1999/xlink" width="48px" height="48px" viewBox="0 0 48 48" version="1.1"> <g id="surface1"> <path style=" stroke:none;fill-rule:nonzero;fill:rgb(23.137255%,34.901961%,59.607843%);fill-opacity:1;" d="M 48 24 C 48 37.253906 37.253906 48 24 48 C 10.746094 48 0 37.253906 0 24 C 0 10.746094 10.746094 0 24 0 C 37.253906 0 48 10.746094 48 24 Z M 48 24 "/> <path style=" stroke:none;fill-rule:nonzero;fill:rgb(100%,100%,100%);fill-opacity:1;" d="M 30.035156 24.941406 L 25.75 24.941406 L 25.75 40.628906 L 19.261719 40.628906 L 19.261719 24.941406 L 16.175781 24.941406 L 16.175781 19.425781 L 19.261719 19.425781 L 19.261719 15.859375 C 19.261719 13.304688 20.476562 9.3125 25.808594 9.3125 L 30.613281 9.332031 L 30.613281 14.683594 L 27.128906 14.683594 C 26.554688 14.683594 25.75 14.96875 25.75 16.1875 L 25.75 19.429688 L 30.601562 19.429688 Z M 30.035156 24.941406 "/> </g> </svg>