<svg xmlns="http://www.w3.org/2000/svg" xmlns:xlink="http://www.w3.org/1999/xlink" width="48" height="48" viewBox="0 0 24 24" fill="none"><path d="M22 6.07013C21.2641 6.40991 20.4733 6.63955 19.6433 6.74283C20.4905 6.21408 21.1411 5.37687 21.4475 4.37933C20.6547 4.86884 19.7765 5.22439 18.8419 5.41602C18.0933 4.58574 17.027 4.06689 15.8468 4.06689C13.5807 4.06689 11.7434 5.97965 11.7434 8.33888C11.7434 8.67371 11.7798 8.99977 11.8497 9.31243C8.43952 9.13428 5.41607 7.4335 3.3923 4.84889C3.0391 5.47985 2.83675 6.2137 2.83675 6.99661C2.83675 8.47872 3.56121 9.78634 4.6622 10.5524C3.98954 10.5302 3.35689 10.3381 2.80361 10.0181C2.80332 10.0359 2.80332 10.0538 2.80332 10.0718C2.80332 12.1417 4.21771 13.8684 6.09481 14.2608C5.75047 14.3584 5.38798 14.4106 5.01372 14.4106C4.74933 14.4106 4.49226 14.3839 4.24178 14.334C4.76389 16.0312 6.27923 17.2664 8.07476 17.3009C6.67047 18.4466 4.9012 19.1296 2.97882 19.1296C2.64765 19.1296 2.32101 19.1094 2 19.07C3.81587 20.2821 5.97271 20.9893 8.28992 20.9893C15.8372 20.9893 19.9644 14.4796 19.9644 8.83426C19.9644 8.64903 19.9604 8.46478 19.9525 8.28161C20.7542 7.67929 21.4499 6.92684 22 6.07013Z" fill="#55ACEE"></path></svg>