<?xml version="1.0" encoding="UTF-8"?>
<svg xmlns="http://www.w3.org/2000/svg" xmlns:xlink="http://www.w3.org/1999/xlink" width="48px" height="41px" viewBox="0 0 47 41" version="1.1">
<g id="surface1">
<path style=" stroke:none;fill-rule:nonzero;fill:rgb(10.196078%,71.764706%,91.764706%);fill-opacity:1;" d="M 46.972656 9.484375 C 46.761719 14.097656 43.566406 20.417969 37.390625 28.4375 C 31 36.8125 25.59375 41 21.171875 41 C 18.433594 41 16.117188 38.445312 14.222656 33.335938 L 10.433594 19.28125 C 9.027344 14.167969 7.515625 11.613281 5.902344 11.613281 C 5.550781 11.613281 4.324219 12.359375 2.214844 13.847656 L 0.00390625 10.976562 C 2.304688 8.933594 4.582031 6.875 6.851562 4.800781 C 9.941406 2.101562 12.253906 0.683594 13.800781 0.542969 C 17.453125 0.1875 19.699219 2.707031 20.539062 8.101562 C 21.453125 13.921875 22.085938 17.542969 22.4375 18.960938 C 23.488281 23.785156 24.648438 26.199219 25.910156 26.199219 C 26.894531 26.199219 28.367188 24.636719 30.332031 21.515625 C 32.300781 18.390625 33.351562 16.015625 33.492188 14.382812 C 33.773438 11.683594 32.71875 10.335938 30.332031 10.335938 C 29.210938 10.335938 28.050781 10.582031 26.859375 11.078125 C 29.175781 3.484375 33.597656 -0.207031 40.128906 0.0078125 C 44.972656 0.148438 47.25 3.308594 46.972656 9.484375 Z M 46.972656 9.484375 "/>
</g>
</svg>
